PathFileType	4	(X/Y/Z)	Walk4.trc
DataRate	CameraRate	NumFrames	NumMarkers	Units	OrigDataRate	OrigDataStartFrame	OrigNumFrames
200.000000	200.000000	4	59	mm	200.000000	352	506
Frame#	Times		LBHD		RBHD		C7		T10		RBack		LPSI		RPSI		RElbowM		RCAR		RFA1		LUA1		RTB1		RTH3		RTB4		LACR1		LCAR		RTH2		LWRU		RTB3		LWRR		RMT1		RWRU		RToe		LElbowM		RCAL		CLAV		RUA1		RTH4		RTH1		RWRR		RMT5		LFA1		LLFC		RACR1		RTB2		LTH1		LTH4		LFHD		RElbow		RLFC		RFHD		LElbow		RMMAL		STRN		LTH3		RLMAL		RASI		LTB2		LTH2		LTB3		LCAL		LASI		LMT5		LMT1		LTB1		LToe		LTB4		LLMAL		LMMAL
			X1	Y1	Z1	X2	Y2	Z2	X3	Y3	Z3	X4	Y4	Z4	X5	Y5	Z5	X6	Y6	Z6	X7	Y7	Z7	X8	Y8	Z8	X9	Y9	Z9	X10	Y10	Z10	X11	Y11	Z11	X12	Y12	Z12	X13	Y13	Z13	X14	Y14	Z14	X15	Y15	Z15	X16	Y16	Z16	X17	Y17	Z17	X18	Y18	Z18	X19	Y19	Z19	X20	Y20	Z20	X21	Y21	Z21	X22	Y22	Z22	X23	Y23	Z23	X24	Y24	Z24	X25	Y25	Z25	X26	Y26	Z26	X27	Y27	Z27	X28	Y28	Z28	X29	Y29	Z29	X30	Y30	Z30	X31	Y31	Z31	X32	Y32	Z32	X33	Y33	Z33	X34	Y34	Z34	X35	Y35	Z35	X36	Y36	Z36	X37	Y37	Z37	X38	Y38	Z38	X39	Y39	Z39	X40	Y40	Z40	X41	Y41	Z41	X42	Y42	Z42	X43	Y43	Z43	X44	Y44	Z44	X45	Y45	Z45	X46	Y46	Z46	X47	Y47	Z47	X48	Y48	Z48	X49	Y49	Z49	X50	Y50	Z50	X51	Y51	Z51	X52	Y52	Z52	X53	Y53	Z53	X54	Y54	Z54	X55	Y55	Z55	X56	Y56	Z56	X57	Y57	Z57	X58	Y58	Z58	X59	Y59	Z59

352	1.76	21.039	1498	-81.036	22.233	1508.1	41.988	-10.644	1364.7	-9.564	-37.478	1093.5	-16.375	-34.643	1261.5	119.44	-58.066	900.17	-56.157	-60.101	907.73	43.168	7.7203	964.58	176.77	145.64	747.54	279.08	63.198	874.34	260.61	78.45	1129.9	-257.52	128.29	332.83	37.447	97.93	557.24	141.41	117.81	240.75	38.243	70.222	1303.2	-173.84	189.19	753.66	-321.48	161.53	663.56	126.6	133.4	779.77	-305.89	121.77	147.38	33.964	196.59	789.89	-269.14	181.25	44.28	10.996	98.366	767.73	243.33	239.38	24.433	12.148	17.099	977.16	-210.67	29.967	39.543	62.317	112.82	1284.2	-4.6476	75.198	1144.5	222.49	96.041	650.42	164.89	109.96	738.29	187.32	170.02	791.48	238.08	165.91	32.765	69.3	88.294	892.53	-299.18	160.35	461.87	-177.05	63.126	1302.6	144.3	101.41	240.11	108.74	121.39	753.84	-210.12	148.93	665.08	-194.98	193.86	1494.1	-62.321	50.621	1001.7	256.73	112.19	457.7	123.53	201.73	1504.6	13.991	46.851	1010.9	-275.58	84.765	71.651	1.0976	176.32	1180.8	-8.4847	170.7	573.38	-182.82	89.905	63.87	80.126	146.04	886.74	135.74	41.726	302.28	-147.03	210	689.63	-162.04	23.72	208.77	-76.708	-127.61	166.63	-43.445	140.07	876.88	-175.32	-48.316	85.621	-122.42	-5.5024	80.693	-79.88	144.36	342.99	-104	13.79	35.835	-106.05	75.848	282.18	-87.771	-85.58	168.68	-98.314	-48.306	152.19	-28.931
353	1.765	26.319	1497.8	-80.831	27.548	1508	42.194	-5.4075	1364.6	-9.33	-32.648	1093.5	-16.122	-29.599	1261.4	119.71	-53.206	900.03	-56.13	-55.385	907.74	43.187	14.583	963.92	177.45	156.3	748.51	278.17	72.019	874.23	260.64	82.887	1129.7	-257.39	129.35	332.68	37.465	100.45	557.21	141.46	118.45	240.63	38.264	75.206	1303	-173.65	193.39	753.51	-321.99	164.8	663.04	126.71	137.63	779.61	-306.23	122.12	147.24	33.812	200.91	789.63	-269.58	181.27	44.147	10.84	108.42	768.21	242.9	239.49	24.441	12.114	21.9	976.99	-210.41	29.995	39.674	62.193	117.98	1284.1	-4.4906	81.01	1144.4	222.69	99.295	650.36	165.03	112.74	737.99	187.92	179.78	792.92	237.13	165.94	32.745	69.185	92.719	892.45	-299.28	169.73	462.58	-176.34	68.269	1302.4	144.47	102.18	240.02	108.7	127.59	754.05	-209.8	156.05	665.65	-194.56	199.15	1494	-62.152	57.716	1001.4	257.17	113.77	457.61	123.66	207.05	1504.5	14.156	51.389	1010.8	-275.4	84.832	71.621	0.93484	181.33	1180.5	-8.4963	178.89	574.14	-182.24	90.006	63.877	79.958	148.87	887.1	135.89	53.761	300.76	-146.42	216.8	690.89	-161.52	37.41	207.01	-75.936	-113.37	161.1	-43.08	145.04	876.78	-175.35	-30.968	82.886	-122.05	11.819	79.367	-79.388	155.37	343.48	-103.04	32.851	35.33	-105.73	88.158	281.41	-87.061	-70.919	164.45	-97.88	-33.393	148.97	-28.295
354	1.77	31.608	1497.7	-80.649	32.872	1507.8	42.378	-0.17742	1364.6	-9.1084	-27.832	1093.5	-15.9	-24.566	1261.3	119.97	-48.366	899.81	-56.136	-50.675	907.71	43.183	21.471	963.22	178.09	166.91	749.5	277.25	80.826	874.1	260.64	87.349	1129.6	-257.27	130.44	332.52	37.478	103.01	557.15	141.49	119.15	240.51	38.299	80.198	1302.8	-173.46	197.59	753.31	-322.51	168.12	662.49	126.83	141.87	779.39	-306.58	122.47	147.1	33.661	205.23	789.3	-270	181.29	44.018	10.683	118.47	768.71	242.43	239.61	24.449	12.096	26.725	976.76	-210.13	30.017	39.81	62.063	123.13	1283.8	-4.3415	86.798	1144.2	222.88	102.58	650.27	165.16	115.38	737.64	188.54	189.49	794.34	236.18	165.97	32.728	69.06	97.148	892.32	-299.38	179.02	463.25	-175.62	73.394	1302.1	144.63	102.96	239.94	108.65	133.76	754.2	-209.5	163.11	666.16	-194.13	204.44	1493.8	-62.005	64.818	1001.1	257.58	115.37	457.51	123.78	212.38	1504.3	14.299	55.933	1010.6	-275.23	84.898	71.592	0.76372	186.33	1180.2	-8.5043	187	574.85	-181.64	90.111	63.884	79.78	151.7	887.4	136.02	65.881	299.14	-145.82	223.52	692.08	-160.98	51.213	205.18	-75.144	-98.859	155.45	-42.739	149.99	876.63	-175.38	-13.474	80.072	-121.64	29.242	77.984	-78.843	166.36	343.95	-102.03	51.975	34.828	-105.32	100.52	280.59	-86.327	-56.054	160.1	-97.462	-18.301	145.67	-27.665
355	1.775	36.907	1497.4	-80.489	38.205	1507.6	42.54	5.0456	1364.4	-8.9004	-23.029	1093.4	-15.71	-19.543	1261.1	120.21	-43.544	899.54	-56.173	-45.968	907.61	43.158	28.387	962.48	178.68	177.46	750.5	276.32	89.615	873.97	260.6	91.842	1129.3	-257.15	131.55	332.35	37.485	105.59	557.07	141.53	119.89	240.39	38.345	85.197	1302.6	-173.29	201.78	753.03	-323.02	171.47	661.93	126.97	146.1	779.12	-306.93	122.83	146.96	33.515	209.54	788.91	-270.42	181.32	43.892	10.524	128.49	769.21	241.91	239.73	24.454	12.092	31.57	976.49	-209.85	30.034	39.951	61.929	128.26	1283.6	-4.2012	92.564	1143.9	223.05	105.9	650.15	165.28	117.98	737.26	189.17	199.15	795.74	235.21	166	32.715	68.926	101.58	892.13	-299.49	188.21	463.88	-174.87	78.501	1301.8	144.78	103.76	239.87	108.59	139.88	754.28	-209.22	170.1	666.61	-193.7	209.75	1493.5	-61.878	71.926	1000.8	257.96	117.01	457.39	123.88	217.71	1504	14.42	60.487	1010.4	-275.06	84.963	71.562	0.58636	191.31	1179.8	-8.5086	195.03	575.51	-181.01	90.219	63.892	79.591	154.53	887.65	136.13	78.081	297.42	-145.23	230.16	693.21	-160.42	65.12	203.29	-74.336	-84.083	149.7	-42.418	154.93	876.42	-175.4	4.1539	77.208	-121.21	46.755	76.561	-78.263	177.33	344.4	-100.97	71.143	34.343	-104.84	112.92	279.72	-85.572	-40.988	155.65	-97.062	-3.0357	142.29	-27.044
